<svg width="176" height="42" viewBox="0 0 176 42" fill="none" xmlns="http://www.w3.org/2000/svg">
<path d="M55.4588 12.8625C53.5882 12.8625 52.155 13.4334 51.159 14.5751C50.163 15.7169 49.665 17.3324 49.665 19.4215C49.665 21.535 50.2116 23.1626 51.3047 24.3043C52.4222 25.4461 53.9162 26.017 55.7867 26.017C56.7827 26.017 57.6208 25.8833 58.301 25.6161C59.0055 25.3489 59.6735 25.0452 60.3051 24.7052C60.7181 25.0452 61.0339 25.4582 61.2525 25.9441C61.4955 26.4056 61.6169 26.9522 61.6169 27.5838C61.6169 28.5798 61.0582 29.4301 59.9407 30.1345C58.8476 30.8147 57.1714 31.1548 54.9122 31.1548C53.2846 31.1548 51.7541 30.9241 50.3209 30.4625C48.8876 30.0009 47.6366 29.2964 46.5677 28.349C45.4988 27.3773 44.6486 26.1627 44.017 24.7052C43.4096 23.2233 43.106 21.4621 43.106 19.4215C43.106 17.5267 43.3975 15.8627 43.9805 14.4294C44.5878 12.9718 45.4016 11.7451 46.4219 10.7491C47.4665 9.75307 48.6811 9 50.0658 8.48985C51.4505 7.97971 52.9323 7.72464 54.5114 7.72464C56.7463 7.72464 58.471 8.08902 59.6857 8.8178C60.9246 9.54658 61.5441 10.4818 61.5441 11.6236C61.5441 12.2552 61.3862 12.8018 61.0704 13.2633C60.7546 13.7249 60.3902 14.0893 59.9772 14.3565C59.3456 13.9435 58.6654 13.5913 57.9366 13.2998C57.2321 13.0083 56.4062 12.8625 55.4588 12.8625ZM72.1219 26.5635C72.5348 26.5635 72.9843 26.5271 73.4701 26.4542C73.9802 26.357 74.3568 26.2356 74.5997 26.0898V23.1747L71.9761 23.3934C71.2959 23.4419 70.7372 23.5877 70.2999 23.8306C69.8627 24.0735 69.644 24.4379 69.644 24.9238C69.644 25.4096 69.8262 25.8105 70.1906 26.1263C70.5793 26.4178 71.223 26.5635 72.1219 26.5635ZM71.8304 12.2431C73.1422 12.2431 74.3325 12.3767 75.4014 12.6439C76.4945 12.9111 77.4176 13.3241 78.1707 13.8828C78.9481 14.4172 79.5432 15.1096 79.9562 15.9598C80.3692 16.7858 80.5757 17.7696 80.5757 18.9114V27.0737C80.5757 27.7053 80.3935 28.2276 80.0291 28.6405C79.689 29.0292 79.276 29.3693 78.7902 29.6608C77.2112 30.6082 74.9884 31.082 72.1219 31.082C70.8344 31.082 69.6683 30.9605 68.6237 30.7176C67.6034 30.4746 66.7168 30.1103 65.9637 29.6244C65.2349 29.1385 64.664 28.5191 64.2511 27.766C63.8624 27.0129 63.668 26.1384 63.668 25.1424C63.668 23.4662 64.166 22.1787 65.162 21.2799C66.158 20.3811 67.7006 19.8223 69.7898 19.6037L74.5633 19.0936V18.8385C74.5633 18.134 74.2475 17.636 73.6159 17.3445C73.0085 17.0287 72.1219 16.8708 70.9558 16.8708C70.0327 16.8708 69.1339 16.968 68.2593 17.1623C67.3848 17.3566 66.5953 17.5996 65.8908 17.8911C65.575 17.6724 65.3078 17.3445 65.0892 16.9072C64.8705 16.4457 64.7612 15.972 64.7612 15.4861C64.7612 14.8545 64.907 14.3565 65.1985 13.9921C65.5143 13.6034 65.988 13.2755 66.6196 13.0083C67.3241 12.7411 68.15 12.5467 69.0974 12.4252C70.0691 12.3038 70.9801 12.2431 71.8304 12.2431ZM90.5579 24.4136C90.5579 25.0452 90.7523 25.4947 91.141 25.7619C91.5539 26.0291 92.1248 26.1627 92.8536 26.1627C93.218 26.1627 93.5945 26.1384 93.9832 26.0898C94.3719 26.017 94.712 25.9319 95.0035 25.8348C95.2221 26.102 95.4043 26.4056 95.5501 26.7457C95.7201 27.0615 95.8051 27.4502 95.8051 27.9118C95.8051 28.8349 95.4529 29.588 94.7484 30.171C94.0682 30.754 92.8536 31.0455 91.1045 31.0455C88.9668 31.0455 87.3149 30.5597 86.1488 29.588C85.0071 28.6163 84.4362 27.0372 84.4362 24.8509V9.25507C84.7034 9.18219 85.08 9.10931 85.5658 9.03643C86.076 8.93926 86.6104 8.89068 87.1691 8.89068C88.238 8.89068 89.0639 9.08502 89.647 9.4737C90.2543 9.83809 90.5579 10.6276 90.5579 11.8422V14.1743H95.3314C95.4772 14.4415 95.6108 14.7816 95.7323 15.1946C95.878 15.5833 95.9509 16.0206 95.9509 16.5064C95.9509 17.3566 95.7566 17.9761 95.3679 18.3648C95.0035 18.7292 94.5055 18.9114 93.8739 18.9114H90.5579V24.4136ZM105.621 25.9441C105.962 26.0412 106.399 26.1141 106.933 26.1627C107.468 26.187 107.978 26.1991 108.464 26.1991C109.435 26.1991 110.237 26.0048 110.869 25.6161C111.525 25.2031 111.852 24.5715 111.852 23.7213C111.852 22.9196 111.585 22.3488 111.051 22.0087C110.516 21.6686 109.703 21.4985 108.609 21.4985H105.621V25.9441ZM105.621 17.053H108.281C109.326 17.053 110.079 16.8586 110.541 16.47C111.027 16.0813 111.269 15.5104 111.269 14.7573C111.269 14.1014 110.99 13.5791 110.431 13.1905C109.897 12.8018 109.083 12.6074 107.99 12.6074C107.626 12.6074 107.2 12.6196 106.715 12.6439C106.253 12.6682 105.889 12.7046 105.621 12.7532V17.053ZM107.99 31.082C107.577 31.082 107.091 31.0698 106.532 31.0455C105.974 31.0212 105.391 30.9726 104.783 30.8998C104.2 30.8269 103.617 30.7297 103.034 30.6082C102.451 30.5111 101.917 30.3653 101.431 30.171C100.095 29.6608 99.4268 28.7742 99.4268 27.5109V10.494C99.4268 9.98384 99.5604 9.59516 99.8277 9.32795C100.119 9.03643 100.508 8.80565 100.994 8.63561C101.82 8.3441 102.852 8.13761 104.091 8.01615C105.33 7.87039 106.605 7.79751 107.917 7.79751C111.027 7.79751 113.419 8.3198 115.096 9.36438C116.772 10.409 117.61 12.0244 117.61 14.2108C117.61 15.3039 117.294 16.2513 116.662 17.053C116.031 17.8303 115.181 18.4012 114.112 18.7656C115.326 19.1057 116.334 19.7252 117.136 20.624C117.962 21.5228 118.375 22.6524 118.375 24.0128C118.375 26.4178 117.476 28.2033 115.679 29.3693C113.905 30.5111 111.342 31.082 107.99 31.082ZM129.093 26.5635C129.506 26.5635 129.956 26.5271 130.441 26.4542C130.952 26.357 131.328 26.2356 131.571 26.0898V23.1747L128.947 23.3934C128.267 23.4419 127.709 23.5877 127.271 23.8306C126.834 24.0735 126.615 24.4379 126.615 24.9238C126.615 25.4096 126.798 25.8105 127.162 26.1263C127.551 26.4178 128.194 26.5635 129.093 26.5635ZM128.802 12.2431C130.113 12.2431 131.304 12.3767 132.373 12.6439C133.466 12.9111 134.389 13.3241 135.142 13.8828C135.919 14.4172 136.515 15.1096 136.928 15.9598C137.341 16.7858 137.547 17.7696 137.547 18.9114V27.0737C137.547 27.7053 137.365 28.2276 137 28.6405C136.66 29.0292 136.247 29.3693 135.762 29.6608C134.182 30.6082 131.96 31.082 129.093 31.082C127.806 31.082 126.64 30.9605 125.595 30.7176C124.575 30.4746 123.688 30.1103 122.935 29.6244C122.206 29.1385 121.635 28.5191 121.222 27.766C120.834 27.0129 120.639 26.1384 120.639 25.1424C120.639 23.4662 121.137 22.1787 122.133 21.2799C123.129 20.3811 124.672 19.8223 126.761 19.6037L131.535 19.0936V18.8385C131.535 18.134 131.219 17.636 130.587 17.3445C129.98 17.0287 129.093 16.8708 127.927 16.8708C127.004 16.8708 126.105 16.968 125.231 17.1623C124.356 17.3566 123.567 17.5996 122.862 17.8911C122.546 17.6724 122.279 17.3445 122.06 16.9072C121.842 16.4457 121.733 15.972 121.733 15.4861C121.733 14.8545 121.878 14.3565 122.17 13.9921C122.486 13.6034 122.959 13.2755 123.591 13.0083C124.295 12.7411 125.121 12.5467 126.069 12.4252C127.04 12.3038 127.951 12.2431 128.802 12.2431ZM147.529 24.4136C147.529 25.0452 147.724 25.4947 148.112 25.7619C148.525 26.0291 149.096 26.1627 149.825 26.1627C150.189 26.1627 150.566 26.1384 150.955 26.0898C151.343 26.017 151.683 25.9319 151.975 25.8348C152.193 26.102 152.376 26.4056 152.521 26.7457C152.691 27.0615 152.776 27.4502 152.776 27.9118C152.776 28.8349 152.424 29.588 151.72 30.171C151.04 30.754 149.825 31.0455 148.076 31.0455C145.938 31.0455 144.286 30.5597 143.12 29.588C141.978 28.6163 141.408 27.0372 141.408 24.8509V9.25507C141.675 9.18219 142.051 9.10931 142.537 9.03643C143.047 8.93926 143.582 8.89068 144.14 8.89068C145.209 8.89068 146.035 9.08502 146.618 9.4737C147.226 9.83809 147.529 10.6276 147.529 11.8422V14.1743H152.303C152.449 14.4415 152.582 14.7816 152.704 15.1946C152.849 15.5833 152.922 16.0206 152.922 16.5064C152.922 17.3566 152.728 17.9761 152.339 18.3648C151.975 18.7292 151.477 18.9114 150.845 18.9114H147.529V24.4136ZM173.415 30.4625C173.172 30.5354 172.783 30.6082 172.249 30.6811C171.739 30.754 171.204 30.7904 170.646 30.7904C170.111 30.7904 169.625 30.754 169.188 30.6811C168.775 30.6082 168.423 30.4625 168.131 30.2439C167.84 30.0252 167.609 29.7337 167.439 29.3693C167.293 28.9806 167.22 28.4826 167.22 27.8753V19.7859C167.22 18.7899 166.965 18.0976 166.455 17.7089C165.969 17.2959 165.362 17.0894 164.633 17.0894C164.147 17.0894 163.686 17.1502 163.249 17.2716C162.811 17.3931 162.459 17.5388 162.192 17.7089V30.4625C161.949 30.5354 161.56 30.6082 161.026 30.6811C160.516 30.754 159.981 30.7904 159.423 30.7904C158.888 30.7904 158.402 30.754 157.965 30.6811C157.552 30.6082 157.2 30.4625 156.908 30.2439C156.617 30.0252 156.386 29.7337 156.216 29.3693C156.07 28.9806 155.997 28.4826 155.997 27.8753V6.74079C156.265 6.6922 156.653 6.63147 157.163 6.55859C157.698 6.46142 158.232 6.41284 158.767 6.41284C159.301 6.41284 159.775 6.44927 160.188 6.52215C160.625 6.59503 160.989 6.74079 161.281 6.95942C161.572 7.17805 161.791 7.48171 161.937 7.87039C162.107 8.23478 162.192 8.72063 162.192 9.32795V12.899C162.508 12.7775 162.981 12.6439 163.613 12.4981C164.269 12.3281 164.986 12.2431 165.763 12.2431C168.168 12.2431 170.038 12.8504 171.375 14.065C172.735 15.2553 173.415 17.0408 173.415 19.4215V30.4625Z" fill="#E1E1E1"/>
<g clip-path="url(#clip0_13_86)">
<path d="M36.0175 19.2233L32.7323 18.5111C32.8803 17.8364 32.9657 17.1367 32.9657 16.4308C32.9657 16.0809 32.943 15.7373 32.9031 15.3875L36.0175 14.7065C36.4787 14.6065 36.7804 14.113 36.6893 13.607C36.5982 13.101 36.1427 12.7698 35.6873 12.8698L32.5273 13.557C32.459 13.3321 32.3907 13.1134 32.3053 12.8948C32.1857 11.8827 31.9352 10.8832 31.548 9.90859C31.4114 9.56498 31.3431 9.23388 31.3488 8.92776L31.474 1.98702C31.4854 1.3623 31.2235 0.768803 30.768 0.393965C30.3182 0.0191281 29.7204 -0.0995704 29.1795 0.081601L22.9849 2.14945C19.9901 1.18737 16.7163 1.18737 13.7214 2.14945L7.52684 0.081601C6.98595 -0.0995704 6.38812 0.0191281 5.93833 0.393965C5.48854 0.768803 5.22094 1.3623 5.23233 1.98702L5.35759 8.92776C5.35759 9.23388 5.29496 9.56498 5.15831 9.90859C4.77115 10.8832 4.52063 11.8827 4.40106 12.8948C4.31566 13.1134 4.24734 13.3383 4.17902 13.557L1.01908 12.8698C0.557902 12.7698 0.10811 13.101 0.0170128 13.607C-0.0740843 14.113 0.227675 14.6065 0.688855 14.7065L3.80324 15.3875C3.76338 15.7311 3.74061 16.0809 3.74061 16.4308C3.74061 17.1429 3.82601 17.8364 3.97405 18.5111L0.688855 19.2233C0.227675 19.3233 -0.0740843 19.8168 0.0170128 20.3228C0.0967229 20.7664 0.455418 21.0787 0.853968 21.0787C0.910904 21.0787 0.962146 21.0787 1.01908 21.06L4.5491 20.2916C5.3405 22.122 6.6728 23.7401 8.39795 25.0333C7.09413 26.3514 6.12052 28.0507 5.6081 29.9811C5.02166 32.1989 4.66866 34.4604 4.5491 36.7032C4.52063 37.2217 4.87932 37.6653 5.35189 37.6903C5.36897 37.6903 5.38605 37.6903 5.40313 37.6903C5.85293 37.6903 6.2287 37.3029 6.25717 36.8094C6.25717 36.7907 6.25717 36.7719 6.25717 36.7532C6.37104 34.6728 6.70127 32.5675 7.24785 30.4996C7.71472 28.7192 8.67124 27.1761 9.94661 26.0453C12.3265 27.3947 15.2245 28.1944 18.3503 28.1944C21.4761 28.1944 24.3741 27.3947 26.754 26.0453C28.0294 27.1761 28.9802 28.7129 29.4528 30.4996C29.9994 32.5675 30.3296 34.6728 30.4435 36.7532C30.4435 36.7719 30.4435 36.7907 30.4435 36.8094C30.4719 37.3279 30.8648 37.7215 31.3431 37.6903C31.8156 37.659 32.1743 37.2155 32.1459 36.7032C32.0263 34.4667 31.6733 32.2052 31.0868 29.9811C30.5801 28.0507 29.6065 26.3514 28.3027 25.0333C30.0278 23.7401 31.3601 22.1158 32.1515 20.2916L35.6816 21.06C35.7385 21.0725 35.7954 21.0787 35.8467 21.0787C36.2452 21.0787 36.6039 20.7726 36.6836 20.3228C36.7747 19.8168 36.473 19.3233 36.0118 19.2233H36.0175ZM6.01804 13.5195C6.0522 13.4321 6.07498 13.3383 6.08636 13.2446C6.17746 12.37 6.39382 11.5016 6.72404 10.6583C6.95748 10.0648 7.07135 9.47128 7.06566 8.89028L6.9404 1.94954C6.9404 1.94954 6.9404 1.91206 6.96887 1.88707C6.98595 1.87457 6.99733 1.86833 7.00872 1.86833C7.02011 1.86833 7.0258 1.86833 7.0315 1.86833L13.4766 4.01739C13.6417 4.07362 13.8125 4.07362 13.9777 4.01739C16.8017 3.05531 19.9161 3.05531 22.7401 4.01739C22.9052 4.07362 23.076 4.07362 23.2411 4.01739L29.6862 1.86833C29.6862 1.86833 29.7204 1.85583 29.7489 1.88082C29.7773 1.90581 29.7773 1.9308 29.7773 1.94329L29.6521 8.88403C29.6407 9.46503 29.7545 10.0585 29.9937 10.652C30.3296 11.4954 30.546 12.37 30.6371 13.2446C30.6484 13.3383 30.6712 13.4321 30.7054 13.5195C30.7623 13.6507 30.8022 13.7882 30.8477 13.9256L29.5154 14.213C29.6065 13.8006 29.6578 13.3758 29.6578 12.9385C29.6578 9.97106 27.4543 7.55336 24.7499 7.55336C22.649 7.55336 20.8555 9.01522 20.1609 11.0581H16.5796C15.885 9.01522 14.0915 7.55336 11.9906 7.55336C9.28615 7.55336 7.08274 9.97106 7.08274 12.9385C7.08274 13.3758 7.13398 13.8006 7.22508 14.213L5.89278 13.9256C5.93833 13.7882 5.98388 13.657 6.03512 13.5195H6.01804ZM22.8653 14.2317L25.9057 10.8957C26.1277 10.652 26.4864 10.652 26.7085 10.8957C26.9305 11.1393 26.9305 11.5329 26.7085 11.7765L23.6681 15.1126C23.5542 15.2375 23.4119 15.2937 23.2639 15.2937C23.1158 15.2937 22.9735 15.2313 22.8596 15.1126C22.6376 14.8689 22.6376 14.4754 22.8596 14.2317H22.8653ZM22.4611 12.7136C22.313 12.7136 22.1707 12.6511 22.0568 12.5324C21.8348 12.2888 21.8348 11.8952 22.0568 11.6516L23.634 9.92108C23.856 9.67744 24.2147 9.67744 24.4368 9.92108C24.6588 10.1647 24.6588 10.5583 24.4368 10.8019L22.8596 12.5324C22.7458 12.6574 22.6034 12.7136 22.4554 12.7136H22.4611ZM10.1003 14.2317L13.1407 10.8957C13.3628 10.652 13.7214 10.652 13.9435 10.8957C14.1655 11.1393 14.1655 11.5329 13.9435 11.7765L10.9031 15.1126C10.7893 15.2375 10.6469 15.2937 10.4989 15.2937C10.3509 15.2937 10.2085 15.2313 10.0946 15.1126C9.87259 14.8689 9.87259 14.4754 10.0946 14.2317H10.1003ZM9.69609 12.7136C9.54806 12.7136 9.40572 12.6511 9.29184 12.5324C9.0698 12.2888 9.0698 11.8952 9.29184 11.6516L10.869 9.92108C11.091 9.67744 11.4497 9.67744 11.6718 9.92108C11.8938 10.1647 11.8938 10.5583 11.6718 10.8019L10.0946 12.5324C9.98077 12.6574 9.83843 12.7136 9.6904 12.7136H9.69609ZM31.0584 18.1425L28.7866 17.649C28.3312 17.549 27.8757 17.8801 27.7846 18.3862C27.6935 18.8922 27.9952 19.3857 28.4564 19.4857L30.4264 19.9167C28.5817 23.6589 23.8674 26.3265 18.3503 26.3265C12.8332 26.3265 8.11897 23.6589 6.27425 19.9167L8.24423 19.4857C8.70541 19.3857 9.00717 18.8922 8.91607 18.3862C8.82497 17.8801 8.37518 17.549 7.914 17.649L5.64226 18.1425C5.51701 17.5865 5.44299 17.0118 5.44299 16.4245C5.44299 16.1996 5.45438 15.9747 5.47715 15.7498L7.914 16.2808C7.97094 16.2933 8.02787 16.2996 8.07911 16.2996C8.09619 16.2996 8.11327 16.2933 8.13036 16.2871C9.02994 17.524 10.4135 18.3237 11.9678 18.3237C14.6723 18.3237 16.8757 15.906 16.8757 12.9385H19.825C19.825 15.906 22.0284 18.3237 24.7328 18.3237C26.2872 18.3237 27.6707 17.524 28.5703 16.2871C28.5874 16.2871 28.6044 16.2996 28.6215 16.2996C28.6785 16.2996 28.7354 16.2996 28.7866 16.2808L31.2235 15.7498C31.2463 15.9747 31.2577 16.1996 31.2577 16.4245C31.2577 17.0118 31.1893 17.5865 31.0584 18.1425ZM21.9088 20.7351C21.9145 21.2537 21.5387 21.6785 21.0662 21.6847C21.0377 21.6847 21.0092 21.6847 20.9864 21.6847C19.8591 21.6847 18.9766 21.3099 18.356 20.579C17.7354 21.3099 16.8529 21.6847 15.7256 21.6847C15.6971 21.6847 15.6686 21.6847 15.6459 21.6847C15.1733 21.6785 14.7975 21.2537 14.8032 20.7351C14.8089 20.2166 15.2132 19.8168 15.6686 19.8105C16.3405 19.8168 16.8244 19.6481 17.1148 19.2983C17.3141 19.0609 17.4109 18.7547 17.4621 18.4986L16.2095 16.6494C16.0501 16.412 16.0216 16.0934 16.1469 15.831C16.2665 15.5686 16.517 15.4 16.7846 15.4H19.9445C20.2121 15.4 20.4626 15.5686 20.5822 15.831C20.7018 16.0934 20.679 16.412 20.5196 16.6494L19.267 18.4986C19.3182 18.761 19.415 19.0671 19.62 19.3045C19.9161 19.6481 20.3829 19.8105 21.0605 19.8105C21.5444 19.823 21.9202 20.2166 21.9259 20.7351H21.9088Z" fill="#E1E1E1"/>
</g>
<defs>
<clipPath id="clip0_13_86">
<rect width="36.7065" height="37.6961" fill="white"/>
</clipPath>
</defs>
</svg>
